<svg version="1.0" xmlns="http://www.w3.org/2000/svg" width="445px" height="90px">
<g>
	<path d="M0.394,64.449h2.735V42.586c0-9.49,6.471-13.591,11.722-13.591c2.373,0,8.698,0.866,8.698,10.141v25.313h2.737V42.586
		c0-8.844,4.885-13.591,11.576-13.591c2.156,0,8.845,0.717,8.845,10.141v25.313h2.731V39.206c0-8.702-4.891-12.584-11.576-12.584
		c-5.969,0-9.565,2.804-11.724,7.837h-0.141c-0.795-3.813-4.104-7.837-11.146-7.837c-5.54,0-10.43,3.742-11.582,8.412h-0.14v-7.55
		H0.394V64.449z"/>
	<path d="M56.777,45.968c0-8.847,4.961-16.973,14.239-16.973c9.276,0,14.238,8.126,14.238,16.973
		c0,8.843-4.962,16.97-14.238,16.97C61.738,62.938,56.777,54.811,56.777,45.968 M54.043,45.968
		c0,10.498,6.113,19.343,16.973,19.343c10.858,0,16.968-8.845,16.968-19.343c0-10.499-6.11-19.346-16.968-19.346
		C60.156,26.622,54.043,35.469,54.043,45.968"/>
	<path d="M121.143,64.449h2.727V13.104h-2.727v22.647h-0.144c-1.946-5.82-7.626-9.13-13.664-9.13
		c-11.149,0-16.468,8.484-16.468,19.414c0,10.213,4.819,19.274,15.963,19.274c6.616,0,11.146-2.949,14.168-8.775h0.144V64.449z
		 M107.405,62.938c-9.491,0-13.805-8.2-13.805-16.901c0-8.915,3.954-17.041,13.735-17.041c9.491,0,13.733,8.412,13.733,17.041
		C121.068,54.525,116.752,62.938,107.405,62.938"/>
	<path d="M131.859,43.954c0.579-7.338,5.393-14.961,13.592-14.961c8.483,0,13.377,7.189,13.515,14.961H131.859z M161.705,46.322
		c0.501-10.565-4.678-19.702-16.253-19.702c-11.148,0-16.466,9.854-16.325,19.995c-0.141,10.209,5.539,18.698,16.325,18.698
		c8.772,0,14.527-4.75,15.964-13.381h-2.727c-1.3,6.836-6.266,11.003-13.237,11.003c-9.133,0-13.737-7.91-13.592-16.613H161.705z"/>
	<path d="M169.042,27.484h-2.733v36.965h2.733V44.241c0.283-5.537,1.433-7.842,4.171-10.644c3.305-3.238,7.333-3.955,10.211-3.594
		v-2.733c-6.688-0.29-12.732,3.593-14.169,8.412h-0.214V27.484z"/>
	<path d="M187.917,64.449h2.729V44.453c0-9.059,5.036-15.458,13.306-15.458c10.068,0,10.503,8.269,10.503,12.081v23.373h2.728
		v-22.87c0-4.529-0.143-14.957-13.156-14.957c-5.755,0-11.362,3.239-13.232,8.772h-0.148v-7.91h-2.729V64.449z"/>
	<path fill="#E04000" d="M226.149,64.495h22.302v-1.23h-7.987V28.051h10.89v-1.226h-10.89V14.616c0-4.443,0.876-7.722,2.632-9.832
		c1.754-2.104,3.837-3.16,6.235-3.16c1.114,0,2.2,0.218,3.247,0.66c1.056,0.437,1.581,1.303,1.581,2.59
		c0,0.993-0.278,1.888-0.831,2.678c-0.561,0.787-0.835,1.68-0.835,2.679c0,1.17,0.482,1.928,1.448,2.281
		c0.967,0.35,1.831,0.527,2.591,0.527c1.52,0,2.603-0.469,3.246-1.407c0.645-0.935,0.97-1.957,0.97-3.069
		c0-0.762-0.213-1.624-0.617-2.591c-0.411-0.97-1.051-1.857-1.929-2.68c-0.881-0.816-2.009-1.506-3.379-2.063
		c-1.38-0.557-3.035-0.835-4.965-0.835c-2.578,0-5.009,0.716-7.29,2.151c-2.278,1.437-4.185,3.119-5.709,5.048
		c-0.583,0.702-1.108,1.481-1.577,2.328c-0.468,0.851-0.876,1.844-1.229,2.985c-0.353,1.139-0.633,2.462-0.834,3.954
		c-0.208,1.492-0.309,3.26-0.309,5.307v4.658h-6.762v1.226h6.762v35.214h-6.762V64.495z"/>
	<path fill="#E04000" d="M289.811,62.562c-0.648,0.471-1.321,0.822-2.018,1.055c-0.704,0.231-1.38,0.349-2.021,0.349
		c-0.998,0-1.759-0.29-2.283-0.879c-0.533-0.582-0.791-1.727-0.791-3.425V37.799c0-1.579-0.233-3.087-0.703-4.521
		c-0.472-1.434-1.261-2.725-2.372-3.866c-1.113-1.138-2.573-2.042-4.394-2.72c-1.813-0.667-4.066-1.006-6.757-1.006
		c-2.226,0-4.2,0.26-5.924,0.788c-1.729,0.525-3.166,1.244-4.305,2.149c-1.143,0.909-2.009,1.948-2.591,3.117
		c-0.587,1.171-0.874,2.405-0.874,3.686c0,1.114,0.232,2.024,0.698,2.725c0.471,0.7,1.667,1.053,3.602,1.053
		c1.111,0,1.959-0.272,2.547-0.834c0.586-0.558,0.874-1.244,0.874-2.061c0-0.47-0.085-1.188-0.261-2.154
		c-0.178-0.964-0.264-1.943-0.264-2.938c0-1.527,0.631-2.622,1.889-3.296c1.258-0.673,2.851-1.011,4.786-1.011
		c1.46,0,2.632,0.209,3.51,0.617c0.882,0.409,1.551,1.012,2.022,1.801c0.463,0.789,0.786,1.74,0.962,2.849
		c0.176,1.115,0.262,2.377,0.262,3.777c0,1.756-0.128,3.148-0.395,4.175c-0.261,1.024-0.744,1.869-1.448,2.546
		c-0.698,0.669-1.683,1.24-2.94,1.708c-1.261,0.475-2.854,1.031-4.783,1.671c-1.638,0.53-3.265,1.028-4.875,1.495
		c-1.612,0.467-3.074,1.068-4.388,1.802c-1.318,0.729-2.388,1.706-3.206,2.938c-0.824,1.229-1.23,2.861-1.23,4.919
		c0,0.875,0.134,1.831,0.394,2.854c0.268,1.019,0.802,1.948,1.626,2.765c0.818,0.817,1.962,1.505,3.426,2.063
		c1.46,0.557,3.423,0.833,5.884,0.833c2.161,0,3.949-0.251,5.358-0.742c1.399-0.5,2.524-1.115,3.377-1.847
		c0.846-0.733,1.479-1.498,1.888-2.282c0.406-0.79,0.729-1.456,0.967-1.979h0.17c0.473,2.163,1.334,3.852,2.591,5.049
		c1.261,1.199,3.296,1.801,6.108,1.801c1.522,0,2.81-0.223,3.865-0.659c1.049-0.435,1.955-0.951,2.717-1.535L289.811,62.562z
		 M275.144,51.763c0,1.169-0.104,2.472-0.308,3.908c-0.206,1.427-0.614,2.766-1.226,3.99c-0.617,1.237-1.523,2.256-2.723,3.077
		c-1.203,0.817-2.769,1.227-4.699,1.227c-1.347,0-2.448-0.234-3.294-0.7c-0.849-0.466-1.507-1.068-1.973-1.803
		c-0.472-0.729-0.788-1.569-0.963-2.502c-0.178-0.937-0.269-1.841-0.269-2.723c0-2.048,0.499-3.76,1.491-5.14
		c0.997-1.367,2.43-2.438,4.307-3.2l6.58-2.632c1.815-0.762,2.78-1.522,2.899-2.29h0.176V51.763z"/>
	<path fill="#E04000" d="M288.14,64.495h21.072v-1.23h-6.756V43.771c0-3.045,0.42-5.621,1.273-7.723
		c0.842-2.117,1.899-3.824,3.16-5.143c1.251-1.317,2.617-2.283,4.082-2.896c1.462-0.612,2.806-0.925,4.036-0.925
		c1.754,0,3.165,0.614,4.215,1.845c1.053,1.233,1.58,3.132,1.58,5.708v28.627h-6.757v1.23h21.071v-1.23h-6.765v-22.39
		c0-2.344,0.367-4.39,1.103-6.146c0.729-1.757,1.682-3.191,2.854-4.307c1.168-1.114,2.482-1.944,3.949-2.497
		c1.465-0.557,2.928-0.841,4.391-0.841c1.871,0,3.352,0.558,4.436,1.668c1.084,1.113,1.623,2.668,1.623,4.655v29.856h-6.762v1.23
		h21.072v-1.23h-6.755V38.939c0-8.721-4.283-13.082-12.825-13.082c-1.814,0-3.439,0.236-4.873,0.704
		c-1.432,0.469-2.68,1.096-3.731,1.89c-1.052,0.789-1.932,1.684-2.635,2.678c-0.701,0.993-1.261,2.015-1.668,3.072h-0.178
		c-0.701-2.989-2.181-5.124-4.433-6.413c-2.251-1.286-4.842-1.931-7.771-1.931c-3.278,0-6.072,0.821-8.382,2.459
		c-2.315,1.643-4.088,4.215-5.312,7.732h-0.178v-9.224H288.14v1.226h6.766v35.214h-6.766V64.495z"/>
	<path fill="#E04000" d="M360.844,64.491h21.072v-1.227h-6.761V26.821h-14.312v1.234h6.755v35.209h-6.755V64.491z M367.908,9.657
		c0.906,0.907,2.006,1.36,3.293,1.36c1.289,0,2.39-0.453,3.294-1.36c0.91-0.908,1.36-2.005,1.36-3.293
		c0-1.287-0.45-2.386-1.36-3.291c-0.904-0.911-2.005-1.362-3.294-1.362c-1.287,0-2.387,0.451-3.293,1.362
		c-0.904,0.905-1.359,2.004-1.359,3.291C366.549,7.652,367.004,8.749,367.908,9.657"/>
	<polygon fill="#E04000" points="382.441,64.495 403.511,64.495 403.511,63.265 396.753,63.265 396.753,1.188 382.441,1.188 
		382.441,2.412 389.202,2.412 389.202,63.265 382.441,63.265 	"/>
	<path fill="#E04000" d="M401.144,28.051h6.062l15.186,37.584l-3.86,9.834c-0.938,2.34-1.792,4.317-2.548,5.923
		c-0.763,1.613-1.523,2.914-2.283,3.916c-0.756,0.992-1.537,1.707-2.327,2.143c-0.79,0.446-1.657,0.659-2.591,0.659
		c-0.699,0-1.26-0.115-1.669-0.348c-0.407-0.237-0.613-0.732-0.613-1.493c0-0.879,0.248-1.684,0.743-2.413
		c0.502-0.729,0.752-1.51,0.752-2.325c0-0.586-0.15-1.084-0.438-1.493c-0.294-0.409-0.648-0.737-1.057-0.966
		c-0.408-0.242-0.852-0.396-1.315-0.482c-0.47-0.089-0.91-0.134-1.32-0.134c-1.17,0-2.165,0.364-2.98,1.099
		c-0.825,0.729-1.233,1.828-1.233,3.29c0,0.525,0.083,1.174,0.261,1.935c0.174,0.758,0.555,1.49,1.142,2.195
		c0.584,0.699,1.394,1.313,2.422,1.843c1.022,0.523,2.375,0.79,4.082,0.79c1.404,0,2.628-0.251,3.686-0.744
		c1.052-0.502,2.029-1.25,2.943-2.242c0.91-0.996,1.766-2.289,2.591-3.865c0.816-1.578,1.634-3.423,2.454-5.532
		c0.994-2.57,1.99-5.133,2.984-7.68c1.003-2.548,2.053-5.078,3.16-7.6l14.493-33.893h4.739v-1.229h-13.434v1.229h7.284
		l-11.854,27.572L415.28,28.051h7.379v-1.229h-21.516V28.051z"/>
</g>
</svg>
